<?xml version="1.0" encoding="utf-8"?>
<!-- Generator: Adobe Illustrator 19.0.1, SVG Export Plug-In . SVG Version: 6.00 Build 0)  -->
<svg version="1.1" id="Layer_1" xmlns="http://www.w3.org/2000/svg" xmlns:xlink="http://www.w3.org/1999/xlink" x="0px" y="0px"
	 viewBox="0 0 1200 880" style="enable-background:new 0 0 1200 880;" xml:space="preserve">
<style type="text/css">
	.st0{fill-rule:evenodd;clip-rule:evenodd;}
</style>
<g>
	<path class="st0" d="M1172.3,551.2c-7.8,25.7-13.8,53.8-23.9,76.8c-21.7,49.4-66.2,71.3-99.9,53.5c-41.6-22-70-75.1-71.5-141.8
		c-1.6-71.4-2.5-143.2,0.6-214.3c2.7-61.4,25.4-104.3,59.1-128.2c33.4-23.7,65.2-14.8,95,19.2c22.2,25.4,31.6,64.3,40.6,104
		C1172.3,397.3,1172.3,474.2,1172.3,551.2z"/>
	<path class="st0" d="M27.8,320.3c7.8-25.7,13.9-53.7,23.9-76.8c21.5-49.1,66-71.1,99.9-53.3c41.6,21.8,69.8,75,71.4,141.8
		c1.6,67.5,2,135.4,0.2,202.9C221,612.4,184.6,676,141,685.3c-48.1,10.3-90.8-33-107.2-108.6c-1.9-8.6-4-17.1-6-25.6
		C27.8,474.2,27.8,397.3,27.8,320.3z"/>
	<path class="st0" d="M815.2,534.8c-142.1,0-282.2,0-424.2,0c-0.2,5.4-0.7,10.6-0.7,15.9c0,64.6,0.2,129.3-0.1,193.9
		c-0.2,42.3-17.1,75.3-55.7,95.4c-56.9,29.5-131.2-8.9-139.6-72.3c-1.1-8.6-1.8-17.3-1.8-26c-0.1-204.5,0-408.9-0.2-613.4
		c0-40.8,14.2-73.7,50.5-94.1c62.1-35,146.4,4.6,146.8,91.2c0.2,64.6,0,129.3,0,193.9c0,5.4,0,10.8,0,17.2c142,0,282.4,0,424.9,0
		c0-5.7,0-11,0-16.3c0-64.6-0.2-129.3,0.1-193.9c0.2-47.3,25.9-86,65.1-98.7C946.6,6,1007.7,47.9,1012.1,118
		c0.3,4.1,0.2,8.2,0.2,12.4c0,204-0.1,408,0.1,612c0,35-9.9,65.2-38.4,86.9c-31.2,23.8-66,27.5-101.1,11.5
		c-39.4-18-57.2-51.5-57.6-94c-0.6-64.6-0.2-129.3-0.2-193.9C815.2,547.4,815.2,542,815.2,534.8z"/>
</g>
</svg>
